<?xml version="1.0" encoding="utf-8"?>
<!-- Generator: Adobe Illustrator 18.1.1, SVG Export Plug-In . SVG Version: 6.00 Build 0)  -->
<svg version="1.1" id="Layer_1" xmlns:sketch="http://www.bohemiancoding.com/sketch/ns"
	 xmlns="http://www.w3.org/2000/svg" xmlns:xlink="http://www.w3.org/1999/xlink" x="0px" y="0px" viewBox="-51.3 5.3 130.2 19.4"
	 enable-background="new -51.3 5.3 130.2 19.4" xml:space="preserve">
<title>Logo</title>
<desc>Created with Sketch.</desc>
<g id="Home" sketch:type="MSPage">
	<g id="Home---Desktop" transform="translate(-30.000000, -25.000000)" sketch:type="MSArtboardGroup">
		<g id="NAV" sketch:type="MSLayerGroup">
			<g id="Logo" transform="translate(30.000000, 25.000000)" sketch:type="MSShapeGroup">
				
					<radialGradient id="Fill-1_1_" cx="741.3685" cy="-209.4346" r="100.1432" gradientTransform="matrix(0.2203 0 0 -9.669288e-02 -205.8969 -5.3279)" gradientUnits="userSpaceOnUse">
					<stop  offset="0" style="stop-color:#62C0E6"/>
					<stop  offset="1" style="stop-color:#0D95D1"/>
				</radialGradient>
				<path id="Fill-1" fill="url(#Fill-1_1_)" d="M-37.6,10.4l3.5-0.3c-1.7-3-4.9-4.9-8.4-4.9c-3.4,0-6.5,1.7-8.3,4.7
					c-0.1,0.1-0.1,0.3-0.2,0.5v0.1l0.3,1.1l1.9,1.1l0.1-0.2c1-2.5,3.4-4.2,6.1-4.2C-40.7,8.3-39,9.1-37.6,10.4L-37.6,10.4
					L-37.6,10.4"/>
				
					<linearGradient id="Fill-2_1_" gradientUnits="userSpaceOnUse" x1="1793.0253" y1="-188.8903" x2="1825.4668" y2="-160.5279" gradientTransform="matrix(8.011318e-02 0 0 -8.757722e-02 -193.282 -5.5923)">
					<stop  offset="0" style="stop-color:#084968"/>
					<stop  offset="1" style="stop-color:#199CD4;stop-opacity:0"/>
				</linearGradient>
				<path id="Fill-2" fill="url(#Fill-2_1_)" d="M-46.2,5.9c-1.9,0.7-3.5,2.1-4.7,3.9c-0.1,0.1-0.1,0.3-0.2,0.5v0.1l0.4,1.1l1.9,1.1
					l0.1-0.2c0.7-1.8,2.1-3.1,3.8-3.7L-46.2,5.9"/>
				<path id="Fill-3" fill="#0D94D2" d="M-10.5,14.6c1,0,1.7,0.7,1.8,1.8h-3.7C-12.2,15.4-11.6,14.6-10.5,14.6L-10.5,14.6z
					 M-7.5,19.4h-2.7c-1.1,0-1.9-0.4-2.1-1.5h5.9c0-0.2,0-0.5,0-0.7c0-2.4-1.3-4.6-4.1-4.6c-2.5,0-4.2,2-4.2,4.5l0,0
					c0,2.6,1.9,4.4,4.5,4.4h1.4L-7.5,19.4L-7.5,19.4z"/>
				<path id="Fill-4" fill="#0D94D2" d="M-4.8,12.8h2.4v1.7c0.5-1.2,1.3-1.9,2.7-1.9v2.5H0.2c-1.6,0-2.6,1-2.6,3v3.1h-2.4L-4.8,12.8
					"/>
				<path id="Fill-5" fill="#0D94D2" d="M15.5,14.6c1,0,1.7,0.7,1.8,1.8h-3.7C13.9,15.4,14.5,14.6,15.5,14.6L15.5,14.6z M18.5,19.4
					h-2.7c-1.1,0-1.9-0.4-2.1-1.5h5.9c0-0.2,0-0.5,0-0.7c0-2.4-1.3-4.6-4.1-4.6c-2.5,0-4.2,2-4.2,4.5l0,0c0,2.6,1.9,4.4,4.5,4.4h1.4
					L18.5,19.4L18.5,19.4z"/>
				<path id="Fill-6" fill="#0D94D2" d="M21.2,12.8h2.4v1.7c0.5-1.2,1.3-1.9,2.7-1.9v2.5h-0.2c-1.6,0-2.6,1-2.6,3v3.1h-2.4V12.8"/>
				<path id="Fill-7" fill="#0D94D2" d="M4.3,16.6c0-1.1,0.6-1.7,1.5-1.7c0.9,0,1.5,0.6,1.5,1.7v4.7h2.4v-5.4c0-1.9-1-3.2-2.8-3.2
					c-1.2,0-1.9,0.7-2.5,1.4v-1.2H2v8.5h2.4L4.3,16.6"/>
				<path id="Fill-8" fill="#0D94D2" d="M-18.4,19.3h2.7l-1.5,2.3h-1.4h-0.6c-3.2-0.1-5.5-2.6-5.5-5.7l0,0c0-3.2,2.4-5.8,5.8-5.8
					c2.1,0,3.4,0.7,4.4,1.7l-1.5,1.8c-0.9-0.8-1.7-1.3-2.9-1.3c-1.9,0-3.3,1.5-3.3,3.5l0,0c0,1.9,1.3,3.5,3.3,3.5"/>
				
					<radialGradient id="Fill-9_1_" cx="745.8173" cy="-207.547" r="100.1432" gradientTransform="matrix(0.2187 0 0 -9.670439e-02 -205.7542 -5.172)" gradientUnits="userSpaceOnUse">
					<stop  offset="0" style="stop-color:#62C0E6"/>
					<stop  offset="1" style="stop-color:#0D95D1"/>
				</radialGradient>
				<path id="Fill-9" fill="url(#Fill-9_1_)" d="M-38.9,20.5c-1.1,0.7-2.3,1.1-3.6,1.1c-2.7,0-5.1-1.7-6.1-4.2l-0.1-0.1l-1.9,1.1
					l-0.4,1.1v0.1c0.1,0.1,0.1,0.3,0.2,0.5c1.8,2.9,4.9,4.7,8.3,4.7s6.5-1.8,8.3-4.7C-35.6,20.3-38,20.4-38.9,20.5"/>
				
					<linearGradient id="Fill-11_1_" gradientUnits="userSpaceOnUse" x1="1777.2629" y1="-272.1144" x2="1815.3735" y2="-304.2406" gradientTransform="matrix(8.084404e-02 0 0 -8.951660e-02 -193.3477 -5.387)">
					<stop  offset="0" style="stop-color:#084968"/>
					<stop  offset="1" style="stop-color:#199CD4;stop-opacity:0"/>
				</linearGradient>
				<path id="Fill-11" fill="url(#Fill-11_1_)" d="M-48.6,17.4l-0.1-0.2l-1.9,1.2l-0.4,1.1v0.1c0.1,0.1,0.1,0.3,0.2,0.5
					c1.2,1.9,3.1,3.3,5.2,4.1l0.8-2.9C-46.5,20.5-48,19.2-48.6,17.4"/>
				
					<linearGradient id="Fill-13_1_" gradientUnits="userSpaceOnUse" x1="604.564" y1="-225.2961" x2="529.6791" y2="-225.2961" gradientTransform="matrix(0.3065 0 0 -8.080376e-02 -213.6603 -5.7514)">
					<stop  offset="0" style="stop-color:#7CC143"/>
					<stop  offset="0.3469" style="stop-color:#C2D72B"/>
					<stop  offset="0.5668" style="stop-color:#D4DD26"/>
					<stop  offset="0.758" style="stop-color:#BED62C"/>
					<stop  offset="1" style="stop-color:#7EC240"/>
				</linearGradient>
				<path id="Fill-13" fill="url(#Fill-13_1_)" d="M-42.5,15.5c4.3,0.2,12.7-1.1,12.7-1.1l1.9-3c0,0-10.5,1.1-14.6,1.1
					c-6.3,0-7.5-1.9-7.5-1.9c-0.7-0.7-0.6-1.3-0.6-1.3c-0.3,0.5-0.9,1.2-0.9,2.3v0.1c0,0.6,0.2,1.1,0.6,1.5
					C-50.7,13.3-49.4,15.2-42.5,15.5"/>
				
					<linearGradient id="Fill-14_1_" gradientUnits="userSpaceOnUse" x1="659.424" y1="-366.3925" x2="584.5466" y2="-366.3925" gradientTransform="matrix(0.2725 0 0 -6.574333e-02 -210.5999 -6.1236)">
					<stop  offset="0" style="stop-color:#7CC143"/>
					<stop  offset="0.3777" style="stop-color:#C2D72B"/>
					<stop  offset="0.5469" style="stop-color:#D4DD26"/>
					<stop  offset="0.7774" style="stop-color:#BED62C"/>
					<stop  offset="1" style="stop-color:#7EC240"/>
				</linearGradient>
				<path id="Fill-14" fill="url(#Fill-14_1_)" d="M-50.7,16.6c-0.5,0.4-0.6,0.9-0.6,1.5v0.1c0,1.1,0.5,1.9,0.9,2.3
					c0,0-0.1-0.7,0.6-1.3c0,0,0.8-0.9,1.7-0.5c1.4,0.5,6.1,0.9,6.1,0.9c4.7,0,9.7-1.1,9.7-1.1l1.9-3c0,0-6.1,1.2-11.6,1.2
					c-2.9,0-4.9-0.5-6.1-0.8C-49.5,15.6-50.4,16.3-50.7,16.6"/>
				<path id="Fill-16" fill="#0D94D2" d="M26.9,12.7h0.8v0.1h-0.3v0.7h-0.1v-0.7h-0.3V12.7"/>
				<path id="Fill-17" fill="#0D94D2" d="M28.5,12.7h0.1v0.9h-0.1v-0.7l-0.3,0.3l0,0L28,12.9v0.7h-0.1v-0.9H28l0.3,0.3L28.5,12.7"/>
			</g>
		</g>
	</g>
</g>
<g id="Home_1_" sketch:type="MSPage">
	<g id="Home---Desktop_1_" transform="translate(-158.000000, -31.000000)" sketch:type="MSArtboardGroup">
		<g id="NAV_1_" sketch:type="MSLayerGroup">
			<g enable-background="new    ">
				<path fill="#0D94D2" d="M189.8,48.2L189.8,48.2c0-2.4,1.9-4.4,4.3-4.4c1.6,0,2.6,0.7,3.3,1.5l-0.8,0.9c-0.7-0.7-1.4-1.3-2.5-1.3
					c-1.7,0-3,1.5-3,3.3l0,0c0,1.8,1.3,3.3,3.1,3.3c1.1,0,1.9-0.5,2.5-1.3l0.8,0.7c-0.9,0.9-1.9,1.6-3.4,1.6
					C191.7,52.5,189.8,50.5,189.8,48.2z"/>
				<path fill="#0D94D2" d="M198.4,48.2L198.4,48.2c0-2.4,1.9-4.4,4.4-4.4c2.5,0,4.3,2,4.3,4.3l0,0c0,2.3-1.9,4.4-4.4,4.4
					C200.2,52.5,198.4,50.5,198.4,48.2z M205.8,48.2L205.8,48.2c0-1.8-1.3-3.3-3.1-3.3c-1.8,0-3.1,1.5-3.1,3.3l0,0
					c0,1.8,1.3,3.3,3.1,3.3C204.6,51.4,205.8,49.9,205.8,48.2z"/>
				<path fill="#0D94D2" d="M208.5,48.2L208.5,48.2c0-2.8,2-4.4,4-4.4c1.5,0,2.5,0.9,3.2,1.8v-5.1h1.3v11.8h-1.3v-1.7
					c-0.7,1-1.7,1.9-3.2,1.9C210.5,52.5,208.5,50.9,208.5,48.2z M215.8,48.1L215.8,48.1c0-1.9-1.5-3.3-3-3.3c-1.6,0-2.9,1.2-2.9,3.2
					l0,0c0,2,1.4,3.3,2.9,3.3C214.3,51.4,215.8,50,215.8,48.1z"/>
				<path fill="#0D94D2" d="M218.8,48.2L218.8,48.2c0-2.5,1.7-4.4,4-4.4c2.5,0,3.9,2,3.9,4.4c0,0.1,0,0.3,0,0.4h-6.7
					c0.2,1.8,1.5,2.8,2.9,2.8c1.1,0,1.9-0.5,2.7-1.2l0.8,0.7c-0.9,0.9-1.9,1.6-3.5,1.6C220.6,52.5,218.8,50.7,218.8,48.2z
					 M225.5,47.6c-0.1-1.5-1-2.9-2.7-2.9c-1.5,0-2.5,1.2-2.7,2.9H225.5z"/>
				<path fill="#0D94D2" d="M227.1,53.9h9.8v1h-9.8V53.9z"/>
			</g>
		</g>
	</g>
</g>
</svg>
