<svg xmlns="http://www.w3.org/2000/svg" xmlns:xlink="http://www.w3.org/1999/xlink" viewBox="0 0 244.62 43.39"><defs><style>.cls-1,.cls-12{fill:none;}.cls-2{isolation:isolate;}.cls-3{clip-path:url(#clip-path);}.cls-4{fill:url(#radial-gradient);}.cls-5,.cls-9{mix-blend-mode:multiply;}.cls-5{fill:url(#linear-gradient);}.cls-6{fill:#1194d2;}.cls-7{clip-path:url(#clip-path-2);}.cls-8{fill:url(#radial-gradient-2);}.cls-9{fill:url(#linear-gradient-2);}.cls-10{fill:url(#New_Gradient_Swatch_2);}.cls-11{fill:url(#New_Gradient_Swatch_2-2);}.cls-12{stroke:#6a747c;stroke-miterlimit:10;stroke-width:0.75px;}.cls-13{fill:#6a747c;}</style><clipPath id="clip-path"><path class="cls-1" d="M28.54,14.53l5.85-.48A16.1,16.1,0,0,0,6.6,13.68a6.8,6.8,0,0,0-.37.73l0,0.11,0.64,1.85L10,18.28l0.13-.33a11,11,0,0,1,18.26-3.51l0.09,0.09h0.07Z"/></clipPath><radialGradient id="radial-gradient" cx="20.52" cy="22" r="16.58" gradientUnits="userSpaceOnUse"><stop offset="0" stop-color="#85d3e3"/><stop offset="0.4" stop-color="#51b7db"/><stop offset="0.8" stop-color="#239ed5"/><stop offset="1" stop-color="#1194d2"/></radialGradient><linearGradient id="linear-gradient" x1="15.93" y1="8.99" x2="6.94" y2="16.53" gradientUnits="userSpaceOnUse"><stop offset="0" stop-color="#fff"/><stop offset="0.21" stop-color="#fcfcfc"/><stop offset="0.35" stop-color="#f4f4f4"/><stop offset="0.46" stop-color="#e5e5e5"/><stop offset="0.56" stop-color="#d0d0d0"/><stop offset="0.66" stop-color="#b5b5b5"/><stop offset="0.75" stop-color="#949494"/><stop offset="0.83" stop-color="#6d6d6d"/><stop offset="0.91" stop-color="#3f3f3f"/><stop offset="0.98" stop-color="#0d0d0d"/><stop offset="1"/></linearGradient><clipPath id="clip-path-2"><path class="cls-1" d="M26.44,31.3a11,11,0,0,1-16.31-5.15L10,25.82,6.83,27.73,6.19,29.58l0,0.1a6.61,6.61,0,0,0,.37.74,16.1,16.1,0,0,0,27.58,0A60.45,60.45,0,0,1,26.44,31.3Z"/></clipPath><radialGradient id="radial-gradient-2" cx="20.52" cy="22" r="16.58" xlink:href="#radial-gradient"/><linearGradient id="linear-gradient-2" x1="16.66" y1="35.72" x2="7.02" y2="27.63" xlink:href="#linear-gradient"/><linearGradient id="New_Gradient_Swatch_2" x1="5.74" y1="17.88" x2="44.99" y2="17.88" gradientUnits="userSpaceOnUse"><stop offset="0" stop-color="#7bc143"/><stop offset="0.12" stop-color="#a0cd37"/><stop offset="0.24" stop-color="#bdd62e"/><stop offset="0.35" stop-color="#d0dc28"/><stop offset="0.42" stop-color="#d6de26"/><stop offset="0.44" stop-color="#d3dd27"/><stop offset="0.82" stop-color="#94c93b"/><stop offset="1" stop-color="#7bc143"/></linearGradient><linearGradient id="New_Gradient_Swatch_2-2" x1="5.74" y1="27.11" x2="40.64" y2="27.11" xlink:href="#New_Gradient_Swatch_2"/></defs><title>Code_LogoTrmt_RGB</title><g class="cls-2"><g id="Layer_1" data-name="Layer 1"><g class="cls-3"><circle class="cls-4" cx="20.52" cy="22" r="16.58"/></g><path class="cls-5" d="M14.31,7.06a16.09,16.09,0,0,0-7.73,6.61,6.8,6.8,0,0,0-.37.73l0,0.11,0.64,1.85L10,18.28l0.13-.33a11,11,0,0,1,6.31-6.25Z"/><path class="cls-6" d="M78.72,29.57H74.13c-1.8,0-3.08-.67-3.48-2.5h9.9c0-.37.05-0.74,0.05-1.06,0-4-2.18-7.73-6.93-7.73a7.08,7.08,0,0,0-7,7.41v0.06a7.12,7.12,0,0,0,7.43,7.35h2.36Zm-5-8c1.7,0,2.76,1.22,3,3H70.6C70.92,22.72,72,21.52,73.68,21.52Z"/><path class="cls-6" d="M83.22,18.54h4v2.87c0.82-2,2.15-3.24,4.54-3.14V22.5H91.59c-2.68,0-4.33,1.62-4.33,5v5.26h-4V18.54Z"/><path class="cls-6" d="M122.15,29.57h-4.59c-1.81,0-3.08-.67-3.48-2.5H124c0-.37.05-0.74,0.05-1.06,0-4-2.18-7.73-6.93-7.73a7.08,7.08,0,0,0-7,7.41v0.06a7.12,7.12,0,0,0,7.43,7.35h2.36Zm-5-8c1.7,0,2.76,1.22,3,3H114C114.34,22.72,115.43,21.52,117.1,21.52Z"/><path class="cls-6" d="M126.65,18.54h4v2.87c0.82-2,2.15-3.24,4.54-3.14V22.5H135c-2.68,0-4.32,1.62-4.32,5v5.26h-4V18.54Z"/><path class="cls-6" d="M98.45,24.84c0-1.91,1-2.89,2.52-2.89s2.44,1,2.44,2.89v7.94h4V23.57c0-3.27-1.78-5.29-4.83-5.29a5,5,0,0,0-4.17,2.29v-2h-4V32.78h4V24.84Z"/><path class="cls-6" d="M60.61,29.34H65l-2.45,3.78H60.18l-1,0a9.4,9.4,0,0,1-9.28-9.58V23.47a9.47,9.47,0,0,1,9.72-9.64,9.62,9.62,0,0,1,7.35,2.88l-2.61,3a6.88,6.88,0,0,0-4.77-2.1,5.52,5.52,0,0,0-5.41,5.81v0.05c0,3.2,2.21,5.86,5.41,5.86"/><g class="cls-7"><circle class="cls-8" cx="20.52" cy="22" r="16.58"/></g><path class="cls-1" d="M26.54,31.49a11,11,0,0,1-16.31-5.15L10.1,26,6.93,27.93,6.28,29.78l0,0.1a6.61,6.61,0,0,0,.37.74,16.1,16.1,0,0,0,27.58,0A60.45,60.45,0,0,1,26.54,31.49Z"/><path class="cls-9" d="M10.17,26.23L10,25.9,6.86,27.83,6.21,29.68l0,0.1a6.59,6.59,0,0,0,.37.74,16.63,16.63,0,0,0,8.64,6.84l1.29-4.84A11,11,0,0,1,10.17,26.23Z"/><path class="cls-10" d="M20.54,23c7.06,0.32,21.19-1.91,21.19-1.91l3.26-5S27.4,18,20.65,18C10.15,18,8.16,14.9,8.16,14.9a3,3,0,0,1-1-2.2,6.41,6.41,0,0,0-1.43,3.87,0.72,0.72,0,0,1,0,.09,3.46,3.46,0,0,0,1,2.59S9,22.5,20.54,23Z"/><path class="cls-11" d="M6.76,24.77a3.3,3.3,0,0,0-1,2.59,0.76,0.76,0,0,1,0,.09,6.41,6.41,0,0,0,1.43,3.87,3,3,0,0,1,1-2.19s1.37-1.41,2.82-.89c2.39,0.93,10.15,1.45,10.15,1.45a94,94,0,0,0,16.25-1.75l3.25-5A113,113,0,0,1,21.37,25a43.56,43.56,0,0,1-10.29-1.3A4.86,4.86,0,0,0,6.76,24.77Z"/><path class="cls-6" d="M136,18.24h1.34v0.18H136.8v1.26h-0.23V18.42H136V18.24Z"/><path class="cls-6" d="M138.86,18.24h0.22v1.44h-0.23V18.56l-0.5.56h0l-0.5-.56v1.12h-0.23V18.24h0.22l0.53,0.59Z"/><line class="cls-12" x1="147.92" y1="5.84" x2="147.94" y2="38.68"/><path class="cls-13" d="M158.19,25.11V25.06a7.52,7.52,0,0,1,7.59-7.62A7.36,7.36,0,0,1,171.61,20l-2.1,2.24a4.89,4.89,0,0,0-3.75-1.82A4.39,4.39,0,0,0,161.53,25v0.06a4.41,4.41,0,0,0,4.36,4.66,5.1,5.1,0,0,0,3.78-1.79l2,2A7.64,7.64,0,0,1,158.19,25.11Z"/><path class="cls-13" d="M172.57,25.11V25.06A7.77,7.77,0,0,1,188.1,25v0.06a7.62,7.62,0,0,1-7.81,7.59A7.54,7.54,0,0,1,172.57,25.11Zm12.2,0V25.06a4.5,4.5,0,0,0-4.47-4.69A4.37,4.37,0,0,0,175.91,25v0.06a4.49,4.49,0,0,0,4.44,4.66A4.37,4.37,0,0,0,184.77,25.11Z"/><path class="cls-13" d="M189.79,25.06V25c0-4.83,3.28-7.56,6.76-7.56a6,6,0,0,1,5,2.57V12.17h3.34V32.32h-3.34V29.89a5.83,5.83,0,0,1-5,2.73C193.13,32.62,189.79,29.89,189.79,25.06Zm11.78,0V25a4.37,4.37,0,0,0-4.22-4.66c-2.29,0-4.19,1.77-4.19,4.66v0.06a4.34,4.34,0,0,0,4.19,4.66A4.39,4.39,0,0,0,201.57,25.06Z"/><path class="cls-13" d="M207.28,25.08V25c0-4.17,3-7.59,7.12-7.59,4.64,0,7,3.64,7,7.84,0,0.3,0,.61-0.06.94H210.62a4.07,4.07,0,0,0,4.2,3.7,5.29,5.29,0,0,0,3.95-1.74l2,1.74a7.37,7.37,0,0,1-6,2.73A7.27,7.27,0,0,1,207.28,25.08ZM218.07,24c-0.22-2.15-1.49-3.84-3.7-3.84-2,0-3.48,1.57-3.78,3.84h7.48Z"/><path class="cls-13" d="M222.78,34.11h16.67v2.59H222.78V34.11Z"/></g></g></svg>