<?xml version="1.0" encoding="UTF-8" standalone="no"?>
<!-- Generator: Adobe Illustrator 18.1.1, SVG Export Plug-In . SVG Version: 6.00 Build 0)  -->

<svg
   version="1.1"
   id="Layer_1"
   x="0px"
   y="0px"
   viewBox="-1669 -406 3368 842"
   enable-background="new -1669 -406 3368 842"
   xml:space="preserve"
   sodipodi:docname="social-links.svg"
   inkscape:version="1.1.1 (c3084ef, 2021-09-22)"
   xmlns:inkscape="http://www.inkscape.org/namespaces/inkscape"
   xmlns:sodipodi="http://sodipodi.sourceforge.net/DTD/sodipodi-0.dtd"
   xmlns="http://www.w3.org/2000/svg"
   xmlns:svg="http://www.w3.org/2000/svg"><defs
   id="defs1066" /><sodipodi:namedview
   id="namedview1064"
   pagecolor="#ffffff"
   bordercolor="#666666"
   borderopacity="1.0"
   inkscape:pageshadow="2"
   inkscape:pageopacity="0.0"
   inkscape:pagecheckerboard="0"
   showgrid="false"
   inkscape:zoom="0.26321379"
   inkscape:cx="2201.6324"
   inkscape:cy="624.96726"
   inkscape:window-width="1728"
   inkscape:window-height="1051"
   inkscape:window-x="1920"
   inkscape:window-y="121"
   inkscape:window-maximized="1"
   inkscape:current-layer="Layer_1" />
	<path
   fill="#393d41"
   d="m -661.6,169.45 c 0,2.6 1.3,5.1 4,7.2 4.5,3 12.4,7.5 23.8,13.4 43.5,22.4 89.1,33.6 136.8,33.6 59.5,0 113.6,-15.3 162.2,-46 23.2,-14.6 43.7,-32.2 61.7,-52.8 18,-20.6 32.3,-42 42.9,-64.4 10.6,-22.4 18.5,-44.7 23.8,-67.2 5.2,-22.4 7.7,-44.3 7.4,-65.5 v -9.3 c 20.9,-15 37.2,-32.1 48.9,-51.3 1.1,-2.1 1.6,-3.7 1.6,-4.8 0,-2.3 -0.9,-4.3 -2.6,-6.2 -1.8,-1.8 -3.8,-2.6 -6.2,-2.6 -1.3,0 -3.4,0.7 -6.4,2.1 -2.1,0.7 -4.8,1.6 -7.9,2.6 -3.1,1 -5.8,2 -8,2.8 -2.2,0.8 -3.7,1.3 -4.4,1.4 4.7,-5.2 9.4,-12.2 14.4,-21 5,-8.8 7.5,-15.2 7.5,-19.4 0,-2.3 -0.9,-4.3 -2.6,-6 -1.8,-1.6 -3.9,-2.5 -6.4,-2.5 -1.4,0 -2.8,0.4 -4.3,1.3 -20.3,10.8 -39.3,18.3 -56.9,22.2 -21.5,-20.5 -47.3,-30.7 -77.2,-30.7 -30.6,0 -56.8,10.7 -78.3,32.1 -21.5,21.4 -32.3,47.2 -32.3,77.5 0,5.4 0.4,9.7 1.1,13.1 -30.1,-2.5 -59.2,-9.7 -87.1,-21.7 -28,-12 -53.1,-28 -75.3,-48.1 -5.2,-5 -15.1,-15.4 -29.9,-31.2 -2.1,-2.1 -4.7,-3.2 -7.5,-3.2 -2.1,0 -4.3,1.4 -6.7,4.3 -4.7,6.9 -8.3,15.4 -11,25.5 -2.7,10.1 -4,19.9 -4,29.5 0,26.5 8.3,49.7 24.8,69.5 l -7.7,-3.7 c -4.5,-2 -7.7,-3 -9.9,-3 -3,0 -5.5,0.9 -7.6,2.6 -2.1,1.8 -3.1,4.1 -3.1,6.9 0,18.7 4.8,36.4 14.4,53.2 9.6,16.8 22.6,30.1 39,40.1 l -3.2,-0.5 c -0.4,0 -0.8,-0.1 -1.4,-0.3 -0.6,-0.2 -1.1,-0.3 -1.4,-0.4 -0.4,-0.1 -0.6,-0.1 -0.8,-0.1 -2.3,0 -4.3,0.9 -6,2.6 -1.7,1.8 -2.5,3.7 -2.5,5.9 0,0.2 0.2,1.1 0.5,3 6,18.5 16.1,34.3 30.2,47.2 14,12.9 30.6,21.6 49.5,26.1 -31,19.1 -65.2,28.6 -102.6,28.6 -2.5,0 -6.5,-0.3 -12,-0.8 -7.5,-0.4 -11.6,-0.5 -12.3,-0.5 -2.3,0 -4.3,0.9 -6,2.6 -2.2,2 -3,4 -3,6.3 z"
   id="path1053" />
	<g
   id="_x23_020201ff"
   transform="translate(0,20.982653)">
		<path
   fill="#393d41"
   d="m 395.8,-227.2 c 19.2,-18.3 46.6,-24.5 72.4,-25.3 27.3,-0.3 54.6,-0.1 81.9,-0.1 0.1,28.8 0.1,57.6 0,86.4 -17.6,0 -35.3,0.1 -52.9,0 -11.2,-0.7 -22.7,7.8 -24.7,18.9 -0.3,19.3 -0.1,38.6 -0.1,57.8 25.9,0.1 51.7,-0.1 77.6,0.1 -1.9,27.8 -5.4,55.6 -9.4,83.3 -22.9,0.2 -45.7,0 -68.6,0.1 -0.2,82.2 0.1,164.4 -0.2,246.6 -34,0.1 -67.9,-0.1 -101.9,0.1 -0.6,-82.2 0.1,-164.5 -0.4,-246.7 -16.5,0 -33.1,0.3 -49.6,0 0.1,-27.7 0,-55.3 0,-82.9 16.6,-0.2 33.1,0.1 49.6,-0.1 0.5,-26.9 -0.5,-53.8 0.5,-80.6 1.8,-21.5 9.9,-42.9 25.8,-57.6 z"
   id="path1055" />
	</g>
	<g
   id="g1059"
   transform="translate(0,20.85)">
		<path
   id="LinkedIn"
   fill="#393d41"
   d="m -1024.6,41.8 v 163 h -94.5 v -152 c 0,-38.2 -13.7,-64.3 -47.9,-64.3 -26.1,0 -41.6,17.6 -48.5,34.6 -2.5,6.1 -3.1,14.5 -3.1,23 v 158.7 h -94.5 c 0,0 1.3,-257.5 0,-284.2 h 94.5 v 40.3 c -0.2,0.3 -0.4,0.6 -0.6,0.9 h 0.6 v -0.9 c 12.6,-19.3 35,-47 85.2,-47 62.2,0 108.8,40.6 108.8,127.9 z m -387.3,-258.3 c -32.3,0 -53.5,21.2 -53.5,49.1 0,27.3 20.5,49.1 52.2,49.1 h 0.6 c 33,0 53.5,-21.8 53.5,-49.1 -0.6,-27.9 -20.5,-49.1 -52.8,-49.1 z m -47.9,421.2 h 94.5 V -79.5 h -94.5 z" />
	</g>
	<path
   fill="#393d41"
   d="m 1176.2561,-228.95113 c -26.1393,1.23326 -43.9897,5.40474 -59.5947,11.53667 -16.1503,6.29407 -29.8391,14.74021 -43.459,28.40929 -13.62,13.66909 -22.0071,27.36766 -28.2569,43.54258 -6.0484,15.63936 -10.1462,33.50449 -11.3009,59.658534 -1.1546,26.15404 -1.4101,34.56087 -1.2824,101.27505 0.1278,66.71419 0.4226,75.0768 1.6902,101.284896 1.248,26.13439 5.4048,43.97987 11.5367,59.58975 6.3039,16.15035 14.7402,29.83418 28.4142,43.45905 13.674,13.62486 27.3627,21.99239 43.577,28.25206 15.6246,6.03858 33.4946,10.15601 59.6437,11.30083 26.1492,1.14482 34.5658,1.41015 101.2604,1.2824 66.6945,-0.12775 75.0915,-0.42255 101.2947,-1.66565 26.2031,-1.24309 43.9553,-5.42931 59.57,-11.53175 16.1504,-6.31864 29.8441,-14.74021 43.4591,-28.41912 13.615,-13.67892 21.9973,-27.38731 28.2422,-43.57206 6.0533,-15.62462 10.1659,-33.49467 11.3009,-59.62414 1.1448,-26.222836 1.415,-34.595276 1.2873,-101.299636 -0.1278,-66.70436 -0.4275,-75.06697 -1.6706,-101.26523 -1.2431,-26.198264 -5.4047,-43.989694 -11.5317,-59.609394 -6.3138,-16.15036 -14.7402,-29.82436 -28.4093,-43.45905 -13.6691,-13.63469 -27.3873,-22.01205 -43.5672,-28.24224 -15.6344,-6.0484 -33.4946,-10.17075 -59.6438,-11.30083 -26.1491,-1.13008 -34.5658,-1.41997 -101.2848,-1.29222 -66.7191,0.12775 -75.0719,0.41272 -101.2751,1.69021 m 2.8694,444.11265 c -23.9528,-1.04164 -36.9586,-5.0215 -45.6258,-8.35278 -11.4777,-4.42207 -19.6536,-9.76785 -28.2914,-18.32208 -8.6378,-8.55424 -13.9442,-16.75962 -18.4253,-28.21276 -3.3656,-8.66724 -7.4192,-21.65828 -8.5395,-45.61112 -1.2185,-25.888726 -1.474,-33.661726 -1.6165,-99.250746 -0.1424,-65.58901 0.1081,-73.35219 1.2431,-99.25073 1.022,-23.933184 5.0264,-36.953704 8.3528,-45.616034 4.4221,-11.49244 9.7482,-19.65361 18.3221,-28.28646 8.5739,-8.63284 16.7547,-13.94915 28.2177,-18.43017 8.6574,-3.38042 21.6484,-7.39958 45.5914,-8.53949 25.9084,-1.22835 33.6716,-1.47402 99.2508,-1.61651 65.5791,-0.14249 73.362,0.10318 99.2802,1.24309 23.9331,1.04164 36.9586,5.00676 45.6111,8.35278 11.4826,4.42207 19.6536,9.73345 28.2864,18.32208 8.6329,8.58863 13.9541,16.73997 18.4351,28.2275 3.3854,8.63285 7.4045,21.61897 8.5346,45.576724 1.2333,25.90837 1.5133,33.67646 1.6313,99.25073 0.1179,65.57428 -0.1131,73.36202 -1.248,99.250746 -1.0466,23.95284 -5.0166,36.96353 -8.3528,45.6406 -4.4221,11.47279 -9.7531,19.65361 -18.3319,28.28154 -8.5788,8.62794 -16.7498,13.94424 -28.2177,18.42527 -8.6476,3.3755 -21.6534,7.40449 -45.5767,8.5444 -25.9084,1.21853 -33.6716,1.47402 -99.2753,1.61651 -65.6038,0.14249 -73.3424,-0.12283 -99.2508,-1.24309 m 200.2703,-331.46307 a 29.480417,29.480417 0 1 0 29.4215,-29.52955 29.480417,29.480417 0 0 0 -29.4215,29.52955 M 1151.8611,15.244984 c 0.1375,69.67205 56.7203,126.023876 126.3776,125.891206 69.6573,-0.13266 126.0484,-56.710496 125.9157,-126.382546 -0.1326,-69.67205 -56.7301,-126.038604 -126.3972,-125.901034 -69.6672,0.13758 -126.0288,56.730144 -125.8961,126.392374 m 44.2501,-0.0884 a 81.891685,81.891685 0 1 1 82.0538,81.72955 81.881858,81.881858 0 0 1 -82.0538,-81.72955"
   id="path1061"
   style="stroke-width:0.49134" />
</svg>
