<?xml version="1.0" encoding="utf-8"?>
<!-- Generator: Adobe Illustrator 18.1.1, SVG Export Plug-In . SVG Version: 6.00 Build 0)  -->
<svg version="1.1" id="Layer_1" xmlns="http://www.w3.org/2000/svg" xmlns:xlink="http://www.w3.org/1999/xlink" x="0px" y="0px"
	 viewBox="-1669 -406 3368 842" enable-background="new -1669 -406 3368 842" xml:space="preserve">
<path fill="#393D41" d="M-661.6,148.4c0,2.6,1.3,5.1,4,7.2c4.5,3,12.4,7.5,23.8,13.4c43.5,22.4,89.1,33.6,136.8,33.6
	c59.5,0,113.6-15.3,162.2-46c23.2-14.6,43.7-32.2,61.7-52.8s32.3-42,42.9-64.4c10.6-22.4,18.5-44.7,23.8-67.2
	c5.2-22.4,7.7-44.3,7.4-65.5v-9.3c20.9-15,37.2-32.1,48.9-51.3c1.1-2.1,1.6-3.7,1.6-4.8c0-2.3-0.9-4.3-2.6-6.2
	c-1.8-1.8-3.8-2.6-6.2-2.6c-1.3,0-3.4,0.7-6.4,2.1c-2.1,0.7-4.8,1.6-7.9,2.6s-5.8,2-8,2.8c-2.2,0.8-3.7,1.3-4.4,1.4
	c4.7-5.2,9.4-12.2,14.4-21c5-8.8,7.5-15.2,7.5-19.4c0-2.3-0.9-4.3-2.6-6c-1.8-1.6-3.9-2.5-6.4-2.5c-1.4,0-2.8,0.4-4.3,1.3
	c-20.3,10.8-39.3,18.3-56.9,22.2c-21.5-20.5-47.3-30.7-77.2-30.7c-30.6,0-56.8,10.7-78.3,32.1c-21.5,21.4-32.3,47.2-32.3,77.5
	c0,5.4,0.4,9.7,1.1,13.1c-30.1-2.5-59.2-9.7-87.1-21.7c-28-12-53.1-28-75.3-48.1c-5.2-5-15.1-15.4-29.9-31.2
	c-2.1-2.1-4.7-3.2-7.5-3.2c-2.1,0-4.3,1.4-6.7,4.3c-4.7,6.9-8.3,15.4-11,25.5c-2.7,10.1-4,19.9-4,29.5c0,26.5,8.3,49.7,24.8,69.5
	l-7.7-3.7c-4.5-2-7.7-3-9.9-3c-3,0-5.5,0.9-7.6,2.6c-2.1,1.8-3.1,4.1-3.1,6.9c0,18.7,4.8,36.4,14.4,53.2c9.6,16.8,22.6,30.1,39,40.1
	l-3.2-0.5c-0.4,0-0.8-0.1-1.4-0.3c-0.6-0.2-1.1-0.3-1.4-0.4c-0.4-0.1-0.6-0.1-0.8-0.1c-2.3,0-4.3,0.9-6,2.6
	c-1.7,1.8-2.5,3.7-2.5,5.9c0,0.2,0.2,1.1,0.5,3c6,18.5,16.1,34.3,30.2,47.2c14,12.9,30.6,21.6,49.5,26.1
	c-31,19.1-65.2,28.6-102.6,28.6c-2.5,0-6.5-0.3-12-0.8c-7.5-0.4-11.6-0.5-12.3-0.5c-2.3,0-4.3,0.9-6,2.6
	C-660.8,144.1-661.6,146.1-661.6,148.4L-661.6,148.4z"/>
<g id="_x23_020201ff">
	<path fill="#393D41" d="M395.8-227.2c19.2-18.3,46.6-24.5,72.4-25.3c27.3-0.3,54.6-0.1,81.9-0.1c0.1,28.8,0.1,57.6,0,86.4
		c-17.6,0-35.3,0.1-52.9,0c-11.2-0.7-22.7,7.8-24.7,18.9c-0.3,19.3-0.1,38.6-0.1,57.8c25.9,0.1,51.7-0.1,77.6,0.1
		c-1.9,27.8-5.4,55.6-9.4,83.3c-22.9,0.2-45.7,0-68.6,0.1c-0.2,82.2,0.1,164.4-0.2,246.6c-34,0.1-67.9-0.1-101.9,0.1
		c-0.6-82.2,0.1-164.5-0.4-246.7C353-6,336.4-5.7,319.9-6c0.1-27.7,0-55.3,0-82.9c16.6-0.2,33.1,0.1,49.6-0.1
		c0.5-26.9-0.5-53.8,0.5-80.6C371.8-191.1,379.9-212.5,395.8-227.2z"/>
</g>
<g>
	<path id="LinkedIn" fill="#393D41" d="M-1024.6,41.8v163h-94.5v-152c0-38.2-13.7-64.3-47.9-64.3c-26.1,0-41.6,17.6-48.5,34.6
		c-2.5,6.1-3.1,14.5-3.1,23v158.7h-94.5c0,0,1.3-257.5,0-284.2h94.5v40.3c-0.2,0.3-0.4,0.6-0.6,0.9h0.6v-0.9
		c12.6-19.3,35-47,85.2-47C-1071.2-86.1-1024.6-45.5-1024.6,41.8z M-1411.9-216.5c-32.3,0-53.5,21.2-53.5,49.1
		c0,27.3,20.5,49.1,52.2,49.1h0.6c33,0,53.5-21.8,53.5-49.1C-1359.7-195.3-1379.6-216.5-1411.9-216.5z M-1459.8,204.7h94.5V-79.5
		h-94.5V204.7z"/>
</g>
<path fill="#393D41" d="M1336.5,99.5v63.9c0,13.5-3.9,20.3-11.8,20.3c-4.6,0-9.2-2.2-13.6-6.7V85.9c4.4-4.4,9-6.7,13.6-6.7
	C1332.5,79.2,1336.5,86,1336.5,99.5L1336.5,99.5z M1438.8,99.8v13.9h-27.3V99.8c0-13.7,4.5-20.6,13.6-20.6
	C1434.3,79.2,1438.8,86.1,1438.8,99.8L1438.8,99.8z M1146.3,33.8h32.4V5.3h-94.5v28.5h31.8v172.3h30.3V33.8z M1233.5,206.1h27V56.5
	h-27V171c-6.1,8.5-11.8,12.7-17.3,12.7c-3.6,0-5.8-2.1-6.4-6.4c-0.2-0.6-0.3-4.1-0.3-10.6V56.5h-27v118.4c0,9.9,0.8,17.3,2.4,22.1
	c2.4,7.5,8.3,11.2,17.6,11.2c9.7,0,20-6.2,30.9-18.5V206.1L1233.5,206.1z M1363.4,161.3v-59.7c0-14.7-0.9-24.7-2.7-30
	c-3.4-11.3-10.6-17-21.5-17c-10.1,0-19.5,5.5-28.2,16.4V5.3h-27v200.8h27v-14.5c9.1,11.1,18.5,16.7,28.2,16.7
	c10.9,0,18.1-5.6,21.5-16.7C1362.5,186.1,1363.4,176,1363.4,161.3L1363.4,161.3z M1465.8,158.3v-3.9h-27.6c0,10.3-0.2,16.5-0.6,18.5
	c-1.4,7.3-5.5,10.9-12.1,10.9c-9.3,0-13.9-7-13.9-20.9v-26.3h54.2v-31.2c0-15.9-2.7-27.7-8.2-35.1c-7.9-10.3-18.6-15.4-32.1-15.4
	c-13.7,0-24.5,5.1-32.4,15.4c-5.7,7.5-8.5,19.2-8.5,35.1v52.4c0,15.9,2.9,27.7,8.8,35.1c7.9,10.3,18.8,15.4,32.7,15.4
	c14.5,0,25.4-5.4,32.7-16.1c3.6-5.5,5.8-10.9,6.4-16.4C1465.6,174,1465.8,168.2,1465.8,158.3L1465.8,158.3z M1281.7-118.2v-63.6
	c0-13.9-4.3-20.9-13-20.9s-13,7-13,20.9v63.6c0,14.1,4.3,21.2,13,21.2S1281.7-104.1,1281.7-118.2z M1499.4,109.2
	c0,47.2-2.6,82.6-7.9,106c-2.8,11.9-8.7,21.9-17.6,30c-8.9,8.1-19.2,12.7-30.9,13.9c-37.1,4.2-93.2,6.4-168.1,6.4
	s-130.9-2.1-168.1-6.4c-11.7-1.2-22.1-5.9-31-13.9c-9-8.1-14.8-18.1-17.4-30c-5.2-22.6-7.9-57.9-7.9-106c0-47.2,2.6-82.6,7.9-106
	c2.8-11.9,8.7-21.9,17.6-30c8.9-8.1,19.3-12.8,31.2-14.2c36.9-4,92.9-6.1,167.8-6.1s130.9,2,168.1,6.1c11.7,1.4,22.1,6.2,31,14.2
	c9,8.1,14.8,18.1,17.4,30C1496.8,25.8,1499.4,61.2,1499.4,109.2z M1197.2-277.2h30.9l-36.6,120.8v82.1h-30.3v-82.1
	c-2.8-14.9-9-36.3-18.5-64.2c-7.5-20.8-14-39.7-19.7-56.6h32.1l21.5,79.6L1197.2-277.2z M1309.2-176.4v53c0,16.4-2.8,28.3-8.5,35.7
	c-7.5,10.3-18.2,15.4-32.1,15.4c-13.5,0-24.1-5.1-31.8-15.4c-5.7-7.7-8.5-19.6-8.5-35.7v-53c0-16.2,2.8-28,8.5-35.4
	c7.7-10.3,18.3-15.4,31.8-15.4c13.9,0,24.6,5.1,32.1,15.4C1306.4-204.3,1309.2-192.5,1309.2-176.4z M1410.7-225.4v151.1h-27.6V-91
	c-10.7,12.5-21.1,18.8-31.2,18.8c-9.3,0-15.2-3.7-17.9-11.2c-1.6-4.8-2.4-12.4-2.4-22.7v-119.3h27.6v111.1c0,6.7,0.1,10.2,0.3,10.6
	c0.6,4.4,2.7,6.7,6.4,6.7c5.5,0,11.2-4.3,17.3-13v-115.4C1383.1-225.4,1410.7-225.4,1410.7-225.4z"/>
</svg>
